# xmcd CD database file
#
# Track frame offsets:
#	183
#	44925
#	86870
#	123055
#	181673
#	236728
#	257160
#
# Disc length: 3783 seconds
#
# Revision: 0
# Processed by: cddbd v1.4PL0 Copyright (c) Steve Scherf et al.
# Submitted via: CDex 1.50beta8
#
DISCID=5d0ec507
DTITLE=Trio Machado - Father Song
DYEAR=1988
DGENRE=Jazz
TTITLE0=Ponctuations
TTITLE1=Minigolf
TTITLE2=All The Things You Are
TTITLE3=Father Song
TTITLE4=Time Remembered
TTITLE5=Pas de Cadeau Pour Stéphanie
TTITLE6=Pry Pry's Walk
EXTD=YEAR: 1988
EXTT0=
EXTT1=
EXTT2=
EXTT3=
EXTT4=
EXTT5=
EXTT6=
PLAYORDER=
